HIERARCHY
ROOT Hips
{
	OFFSET 0.000000 0.000000 0.000000
	CHANNELS 6 Xposition Yposition Zposition Xrotation Yrotation Zrotation
	JOINT LeftUpLeg_virtual
	{
		OFFSET 0.000000 0.000000 0.000000
		CHANNELS 3 Xrotation Yrotation Zrotation
		JOINT LeftUpLeg
		{
			OFFSET 15.427100 -6.655098 0.678600
			CHANNELS 3 Xrotation Yrotation Zrotation
			JOINT LeftLeg
			{
				OFFSET 4.081073 -39.591068 13.024000
				CHANNELS 3 Xrotation Yrotation Zrotation
				JOINT LeftFoot
				{
					OFFSET -4.081074 -37.707932 -15.979700
					CHANNELS 3 Xrotation Yrotation Zrotation
					JOINT LeftToeBase
					{
						OFFSET 5.346399 -15.068900 20.645000
						CHANNELS 3 Xrotation Yrotation Zrotation
						JOINT LeftToe_End
						{
							OFFSET 2.754700 0.931300 11.300900
							CHANNELS 3 Xrotation Yrotation Zrotation
							End Site
							{
								OFFSET 0 0 0
							}
						}
					}
				}
			}
		}
	}
	JOINT RightUpLeg_virtual
	{
		OFFSET 0.000000 0.000000 0.000000
		CHANNELS 3 Xrotation Yrotation Zrotation
		JOINT RightUpLeg
		{
			OFFSET -15.569500 -6.655098 0.678600
			CHANNELS 3 Xrotation Yrotation Zrotation
			JOINT RightLeg
			{
				OFFSET -4.081825 -39.591045 13.023800
				CHANNELS 3 Xrotation Yrotation Zrotation
				JOINT RightFoot
				{
					OFFSET 4.081824 -37.707954 -15.979600
					CHANNELS 3 Xrotation Yrotation Zrotation
					JOINT RightToeBase
					{
						OFFSET -5.346400 -15.068900 20.645000
						CHANNELS 3 Xrotation Yrotation Zrotation
						JOINT RightToe_End
						{
							OFFSET -2.754700 0.931300 11.300900
							CHANNELS 3 Xrotation Yrotation Zrotation
							End Site
							{
								OFFSET 0 0 0
							}
						}
					}
				}
			}
		}
	}
	JOINT Spine_virtual
	{
		OFFSET 0.000000 0.000000 0.000000
		CHANNELS 3 Xrotation Yrotation Zrotation
		JOINT Spine
		{
			OFFSET -0.279200 12.230698 -2.892100
			CHANNELS 3 Xrotation Yrotation Zrotation
			JOINT Spine1
			{
				OFFSET -0.232667 10.192268 -1.242267
				CHANNELS 3 Xrotation Yrotation Zrotation
				JOINT Spine1_split
				{
					OFFSET -0.232667 10.192268 -1.242267
					CHANNELS 3 Xrotation Yrotation Zrotation
					JOINT Spine2
					{
						OFFSET -0.232667 10.192268 -1.242267
						CHANNELS 3 Xrotation Yrotation Zrotation
						JOINT Neck_virtual
						{
							OFFSET 0.000000 0.000000 0.000000
							CHANNELS 3 Xrotation Yrotation Zrotation
							JOINT Neck
							{
								OFFSET -0.418800 17.814194 8.416900
								CHANNELS 3 Xrotation Yrotation Zrotation
								JOINT Head
								{
									OFFSET 0.000000 7.031097 3.806800
									CHANNELS 3 Xrotation Yrotation Zrotation
									JOINT HeadTop_End
									{
										OFFSET 0.000000 24.646606 12.978600
										CHANNELS 3 Xrotation Yrotation Zrotation
										End Site
										{
											OFFSET 0 0 0
										}
									}
								}
							}
						}
						JOINT LeftShoulder_virtual
						{
							OFFSET 0.000000 0.000000 0.000000
							CHANNELS 3 Xrotation Yrotation Zrotation
							JOINT LeftShoulder
							{
								OFFSET 8.476499 7.247704 -3.868750
								CHANNELS 3 Xrotation Yrotation Zrotation
								JOINT LeftShoulder_split
								{
									OFFSET 8.476499 7.247704 -3.868750
									CHANNELS 3 Xrotation Yrotation Zrotation
									JOINT LeftArm
									{
										OFFSET 9.308998 -2.777710 0.208600
										CHANNELS 3 Xrotation Yrotation Zrotation
										JOINT LeftForeArm
										{
											OFFSET 29.972298 0.000000 0.000000
											CHANNELS 3 Xrotation Yrotation Zrotation
											JOINT LeftHand
											{
												OFFSET 26.026505 0.000000 0.000000
												CHANNELS 3 Xrotation Yrotation Zrotation
												End Site
												{
													OFFSET 0 0 0
												}
											}
										}
									}
								}
							}
						}
						JOINT RightShoulder_virtual
						{
							OFFSET 0.000000 0.000000 0.000000
							CHANNELS 3 Xrotation Yrotation Zrotation
							JOINT RightShoulder
							{
								OFFSET -7.570500 7.247704 -3.868750
								CHANNELS 3 Xrotation Yrotation Zrotation
								JOINT RightShoulder_split
								{
									OFFSET -7.570500 7.247704 -3.868750
									CHANNELS 3 Xrotation Yrotation Zrotation
									JOINT RightArm
									{
										OFFSET -9.308998 -2.777710 0.208500
										CHANNELS 3 Xrotation Yrotation Zrotation
										JOINT RightForeArm
										{
											OFFSET -29.972300 0.000000 0.000000
											CHANNELS 3 Xrotation Yrotation Zrotation
											JOINT RightHand
											{
												OFFSET -26.026505 0.000000 0.000000
												CHANNELS 3 Xrotation Yrotation Zrotation
												End Site
												{
													OFFSET 0 0 0
												}
											}
										}
									}
								}
							}
						}
					}
				}
			}
		}
	}
}
MOTION
Frames: 9
Frame Time: 0.03333333
0.289216 71.049149 -7.946104 0.000000 0.000000 0.000000 -12.791877 3.385735 1.195457 -30.589197 -5.656116 14.614670 68.909587 -1.863142 0.208114 -25.433852 -2.612729 -13.887116 -2.925839 -0.587802 0.136142 0.000000 0.000000 0.000000 -12.317848 2.445478 1.066706 -22.359014 -3.308312 -23.263604 67.491872 4.816938 1.552535 -32.442938 -4.689354 12.112533 0.559877 0.718910 -0.030911 0.000000 0.000000 0.000000 -12.110672 2.553158 0.795035 25.451300 -2.168783 0.455474 13.718261 -0.122865 1.098662 0.073621 0.792895 0.260002 0.000000 0.000000 0.000000 14.449793 -0.192805 0.978235 14.167668 -2.186802 -0.765045 -10.658088 -3.861488 -0.423683 0.000000 0.000000 0.000000 15.040944 -0.296760 0.684432 0.920885 -20.608050 -4.416896 -1.562419 -0.078965 -4.059973 -29.128336 0.457915 -58.250927 -136.068611 -75.694082 -134.740262 0.000000 0.000000 0.000000 14.817984 0.058280 1.025220 8.021157 3.795904 21.964271 0.637371 3.550819 3.746867 -27.101142 20.951899 42.881833 -100.872994 65.113320 92.745520 0.000000 0.000000 0.000000 
0.164008 71.509476 -7.564005 0.000000 0.000000 0.000000 -13.513081 3.211644 0.947852 -28.874321 -5.571253 14.829078 68.154578 -1.803838 0.341281 -25.620953 -2.326017 -13.883591 -3.042384 -0.567723 0.173328 0.000000 0.000000 0.000000 -13.012209 2.611431 0.838756 -20.883793 -3.289716 -22.594795 66.851453 4.634428 1.484625 -32.659922 -4.738746 11.972512 0.623125 0.695269 0.040792 0.000000 0.000000 0.000000 -13.058747 2.396348 0.677686 25.062155 -1.741418 0.226405 13.189286 -0.048506 1.174277 -0.182064 0.300126 0.210565 0.000000 0.000000 0.000000 13.587562 -0.118314 0.963545 13.182099 -2.251044 -1.093460 -9.453946 -3.720666 -0.293245 0.000000 0.000000 0.000000 14.722087 -0.320397 0.725790 0.774314 -20.536005 -5.688436 -0.993177 -0.519245 -3.519287 -26.819084 -1.115761 -58.481575 -133.196038 -78.241142 -131.822678 0.000000 0.000000 0.000000 14.232578 0.139157 1.159855 8.021512 4.201573 22.566884 0.481923 3.003997 4.043877 -23.996492 20.013342 41.272128 -100.665964 65.042443 92.367490 0.000000 0.000000 0.000000 
-0.017104 72.166145 -7.206617 0.000000 0.000000 0.000000 -14.313327 3.027168 0.719430 -26.952473 -5.544415 15.130430 67.037432 -1.767453 0.444134 -25.535526 -2.088711 -13.941334 -3.093781 -0.554335 0.196413 0.000000 0.000000 0.000000 -13.806357 2.776111 0.654544 -19.187661 -3.456087 -21.941689 65.869607 4.477649 1.486088 -32.720807 -4.786761 11.850296 0.645335 0.673502 0.109933 0.000000 0.000000 0.000000 -14.102906 2.461549 0.490343 24.405133 -1.265209 0.084635 12.786754 0.015394 1.260084 -0.219429 0.164873 0.240485 0.000000 0.000000 0.000000 12.914307 -0.075571 0.961475 11.952008 -2.279547 -1.515703 -8.642988 -3.552461 -0.156840 0.000000 0.000000 0.000000 14.433955 -0.338279 0.819953 0.662173 -20.836165 -6.952626 -0.993394 -0.913318 -3.207079 -24.067824 -3.683547 -57.863430 -125.035533 -80.679178 -123.214823 0.000000 0.000000 0.000000 13.693148 0.166484 1.327957 7.837863 4.386874 23.283090 -0.138754 2.871060 4.084042 -20.224658 20.019402 39.470697 -102.811341 66.227645 94.208874 0.000000 0.000000 0.000000 
-0.219260 72.926361 -6.887518 0.000000 0.000000 0.000000 -15.075273 2.857139 0.556805 -25.034330 -5.546539 15.452868 65.668232 -1.745088 0.477247 -25.180075 -1.923653 -14.006737 -3.087524 -0.552142 0.214166 0.000000 0.000000 0.000000 -14.608912 2.880102 0.549943 -17.499223 -3.798509 -21.414588 64.605742 4.366224 1.567665 -32.559799 -4.829874 11.774221 0.593650 0.657557 0.151989 0.000000 0.000000 0.000000 -15.067235 2.758586 0.298294 23.701848 -0.833328 0.025056 12.448864 0.051914 1.308201 0.059899 0.303600 0.475918 0.000000 0.000000 0.000000 12.432389 -0.063394 0.966425 10.325180 -2.259169 -1.953311 -8.411054 -3.409786 0.017203 0.000000 0.000000 0.000000 14.043730 -0.348430 0.942576 0.649561 -21.229007 -7.828279 -1.287570 -1.139008 -3.337930 -21.881850 -6.177851 -56.577110 -114.255876 -82.439140 -111.585852 0.000000 0.000000 0.000000 13.177428 0.137669 1.479712 7.565539 4.188550 23.991692 -1.113873 2.938001 4.097980 -16.421778 20.342967 38.250227 -106.475095 68.386053 97.331418 0.000000 0.000000 0.000000 
-0.398689 73.709221 -6.622332 0.000000 0.000000 0.000000 -15.707337 2.732285 0.481065 -23.334952 -5.577320 15.729548 64.237048 -1.713219 0.437578 -24.657954 -1.811455 -14.007343 -3.012666 -0.555032 0.221145 0.000000 0.000000 0.000000 -15.303280 2.939778 0.520225 -15.957463 -4.268342 -21.035823 63.174633 4.297785 1.724588 -32.248328 -4.891005 11.735530 0.478129 0.649732 0.154159 0.000000 0.000000 0.000000 -15.857836 3.176583 0.169017 23.095410 -0.522889 0.037118 12.080306 0.052278 1.284592 0.516175 0.463936 0.730687 0.000000 0.000000 0.000000 12.032348 -0.078337 0.969881 8.266233 -2.174509 -2.310374 -8.842019 -3.390400 0.256627 0.000000 0.000000 0.000000 13.541507 -0.349967 1.036400 0.747999 -21.461417 -8.292960 -1.900336 -1.018790 -4.013183 -20.312154 -7.819499 -55.360401 -106.143640 -83.770016 -102.357365 0.000000 0.000000 0.000000 12.654512 0.065068 1.538285 7.302066 3.639188 24.636619 -1.891919 3.209096 4.019738 -13.094661 20.345598 38.029428 -111.156029 71.159233 101.200659 0.000000 0.000000 0.000000 
-0.515023 74.422989 -6.369547 0.000000 0.000000 0.000000 -16.163194 2.657373 0.467060 -21.979313 -5.639325 15.913941 62.937447 -1.662610 0.355472 -24.097899 -1.704110 -13.954922 -2.882140 -0.558069 0.218450 0.000000 0.000000 0.000000 -15.855961 3.020430 0.541673 -14.626872 -4.786185 -20.774287 61.735314 4.263729 1.938758 -31.931213 -4.954290 11.681555 0.359381 0.652448 0.112534 0.000000 0.000000 0.000000 -16.406645 3.603770 0.147219 22.674968 -0.369587 0.070302 11.613541 0.025253 1.179134 0.812869 0.820855 0.809139 0.000000 0.000000 0.000000 11.634878 -0.097178 0.925857 5.912061 -2.036264 -2.512192 -9.740003 -3.409187 0.531533 0.000000 0.000000 0.000000 12.900160 -0.343497 1.057675 0.877572 -21.371353 -8.486694 -2.511469 -0.842747 -4.779986 -18.787829 -8.341462 -54.681835 -100.761225 -85.413155 -95.849472 0.000000 0.000000 0.000000 12.074342 -0.020409 1.495937 7.137514 2.817298 25.148890 -2.235809 3.395954 3.617204 -10.835589 19.849708 39.062484 -116.295773 74.263035 105.399757 0.000000 0.000000 0.000000 
-0.596364 75.025223 -6.121317 0.000000 0.000000 0.000000 -16.423110 2.606303 0.478421 -21.006921 -5.771080 15.998608 61.880933 -1.595797 0.279723 -23.606944 -1.548734 -13.907688 -2.736370 -0.554939 0.209542 0.000000 0.000000 0.000000 -16.243354 3.151772 0.581574 -13.535356 -5.264166 -20.593451 60.419471 4.250302 2.200961 -31.728930 -5.013970 11.573542 0.283341 0.665456 0.042247 0.000000 0.000000 0.000000 -16.725161 3.986869 0.264502 22.471724 -0.354808 0.092801 11.010456 0.004621 1.012178 0.966504 0.934601 0.914799 0.000000 0.000000 0.000000 11.129773 -0.099785 0.848530 3.492849 -1.866471 -2.543927 -10.877169 -3.378906 0.784419 0.000000 0.000000 0.000000 12.167211 -0.327260 1.017193 0.979169 -20.823095 -8.567825 -2.948836 -0.619385 -5.290876 -16.976784 -8.144231 -54.613947 -77.367943 -87.788394 -71.534791 0.000000 0.000000 0.000000 11.424917 -0.076557 1.383854 7.065265 1.898110 25.457015 -2.385626 3.536541 3.211250 -9.468355 19.062653 40.577700 -121.673318 77.530283 109.929320 0.000000 0.000000 0.000000 
-0.647122 75.505249 -5.889952 0.000000 0.000000 0.000000 -16.532483 2.605911 0.499451 -20.384078 -5.949753 16.002983 61.091309 -1.508466 0.240358 -23.242925 -1.342402 -13.901575 -2.624691 -0.545057 0.199484 0.000000 0.000000 0.000000 -16.459462 3.325854 0.627765 -12.677395 -5.637491 -20.452190 59.291137 4.241158 2.474003 -31.645677 -5.066814 11.422943 0.238125 0.685304 -0.039651 0.000000 0.000000 0.000000 -16.875210 4.268797 0.475101 22.412602 -0.430599 0.083780 10.308197 0.014231 0.830354 0.947278 0.850841 0.768408 0.000000 0.000000 0.000000 10.493895 -0.075419 0.751502 1.150680 -1.673310 -2.428031 -12.013281 -3.212742 0.955147 0.000000 0.000000 0.000000 11.394779 -0.295527 0.936100 0.969178 -19.907239 -8.719355 -3.355921 -0.569165 -5.257977 -14.594227 -7.849519 -55.076480 23.434961 -87.548156 29.927457 0.000000 0.000000 0.000000 10.722356 -0.076950 1.244014 7.085348 1.105898 25.694764 -2.307769 3.579195 2.748205 -8.639336 18.409146 41.914784 -127.731463 80.903700 115.473186 0.000000 0.000000 0.000000 
-0.697160 75.872391 -5.645147 0.000000 0.000000 0.000000 -16.529182 2.643199 0.511158 -19.997576 -6.130922 15.960704 60.523037 -1.407579 0.259410 -22.978802 -1.122638 -13.965706 -2.573530 -0.534086 0.203938 0.000000 0.000000 0.000000 -16.539682 3.488817 0.671752 -12.037227 -5.855034 -20.346594 58.347779 4.247961 2.719372 -31.610245 -5.095894 11.281219 0.216735 0.705953 -0.116461 0.000000 0.000000 0.000000 -16.911461 4.499296 0.726082 22.478965 -0.533243 0.025737 9.571093 0.063210 0.685333 0.850261 0.860302 0.687806 0.000000 0.000000 0.000000 9.780431 -0.016561 0.659965 -1.001113 -1.467863 -2.211045 -12.938828 -2.818562 1.000091 0.000000 0.000000 0.000000 10.589352 -0.252391 0.854385 0.795711 -18.777119 -9.031193 -3.600953 -0.731797 -4.649797 -11.920400 -7.971484 -55.621635 48.601229 -83.843489 55.473967 0.000000 0.000000 0.000000 9.974112 -0.012837 1.150943 7.153137 0.544801 25.974929 -2.082324 3.560837 2.321223 -8.035986 18.217740 42.602748 -137.884403 84.127638 125.668814 0.000000 0.000000 0.000000 
